# xmcd CD database file
#
# Track frame offsets:
#	150
#	16676
#	34649
#	48167
#	72883
#	85267
#	100203
#	115320
#	125956
#	136340
#
# Disc length: 2033 seconds
#
# Revision: 0
# Processed by: cddbd v1.5.2PL0 Copyright (c) Steve Scherf et al.
# Submitted via: CDex 1.70beta2
#
DISCID=8007ef0a
DTITLE=UVON - UVON Unplugged
DYEAR=1999
DGENRE=Blues
TTITLE0=Knockin' Blues
TTITLE1=I Want An All-Around Man
TTITLE2=Being In The Now
TTITLE3=Blues Jones
TTITLE4=Tool Kit
TTITLE5=Stuck In Traffic Blues
TTITLE6=Ain't Gonna Cry No More
TTITLE7=Restin' Easy
TTITLE8=Lonesome Sundown
TTITLE9=Knockin' Blues
EXTD=YEAR: 1999
EXTT0=
EXTT1=
EXTT2=
EXTT3=
EXTT4=
EXTT5=
EXTT6=
EXTT7=
EXTT8=
EXTT9=
PLAYORDER=
